<?xml version="1.0" encoding="UTF-8" standalone="no"?>
<!-- Created with Inkscape (http://www.inkscape.org/) -->

<svg
   xmlns:dc="http://purl.org/dc/elements/1.1/"
   xmlns:cc="http://creativecommons.org/ns#"
   xmlns:rdf="http://www.w3.org/1999/02/22-rdf-syntax-ns#"
   xmlns:svg="http://www.w3.org/2000/svg"
   xmlns="http://www.w3.org/2000/svg"
   xmlns:xlink="http://www.w3.org/1999/xlink"
   version="1.1"
   width="701.80939"
   height="664.45471"
   id="svg4723">
  <defs
     id="defs3">
    <filter
       color-interpolation-filters="sRGB"
       id="filter4142">
      <feGaussianBlur
         id="feGaussianBlur4144"
         stdDeviation="3.9708581" />
    </filter>
    <linearGradient
       x1="1480.2878"
       y1="5124.2783"
       x2="1475.7883"
       y2="4696.8394"
       id="linearGradient4037"
       xlink:href="#linearGradient3974"
       gradientUnits="userSpaceOnUse"
       gradientTransform="translate(4.4993521,508.42709)" />
    <linearGradient
       id="linearGradient3974">
      <stop
         id="stop3976"
         style="stop-color:#000000;stop-opacity:1"
         offset="0" />
      <stop
         id="stop3978"
         style="stop-color:#000000;stop-opacity:0"
         offset="1" />
    </linearGradient>
    <linearGradient
       x1="1471.3695"
       y1="4807.3687"
       x2="1469.1199"
       y2="4602.6475"
       id="linearGradient4039"
       xlink:href="#linearGradient3962"
       gradientUnits="userSpaceOnUse" />
    <linearGradient
       id="linearGradient3962">
      <stop
         id="stop3964"
         style="stop-color:#ffffff;stop-opacity:1"
         offset="0" />
      <stop
         id="stop3966"
         style="stop-color:#ffffff;stop-opacity:0"
         offset="1" />
    </linearGradient>
    <filter
       color-interpolation-filters="sRGB"
       id="filter3958">
      <feGaussianBlur
         id="feGaussianBlur3960"
         stdDeviation="3.7445471" />
    </filter>
    <filter
       color-interpolation-filters="sRGB"
       id="filter3997">
      <feGaussianBlur
         id="feGaussianBlur3999"
         stdDeviation="3.0873328" />
    </filter>
    <linearGradient
       x1="1509.5334"
       y1="4492.1187"
       x2="1509.5334"
       y2="4800.3247"
       id="linearGradient4041"
       xlink:href="#linearGradient4001"
       gradientUnits="userSpaceOnUse"
       gradientTransform="translate(0,503.92774)" />
    <linearGradient
       id="linearGradient4001">
      <stop
         id="stop4003"
         style="stop-color:#ffffff;stop-opacity:1"
         offset="0" />
      <stop
         id="stop4005"
         style="stop-color:#ffffff;stop-opacity:0"
         offset="1" />
    </linearGradient>
    <linearGradient
       x1="1509.5334"
       y1="4492.1187"
       x2="1509.5334"
       y2="4800.3247"
       id="linearGradient4043"
       xlink:href="#linearGradient4001"
       gradientUnits="userSpaceOnUse"
       gradientTransform="translate(0,503.92774)" />
    <linearGradient
       x1="1498.9908"
       y1="4909.7725"
       x2="1492.0819"
       y2="5150.9199"
       id="linearGradient4112"
       xlink:href="#linearGradient4054"
       gradientUnits="userSpaceOnUse"
       gradientTransform="matrix(1,0,0,2.2648522,0,-6294.2897)" />
    <linearGradient
       id="linearGradient4054">
      <stop
         id="stop4056"
         style="stop-color:#ffffff;stop-opacity:1"
         offset="0" />
      <stop
         id="stop4058"
         style="stop-color:#ffffff;stop-opacity:0"
         offset="1" />
    </linearGradient>
    <filter
       color-interpolation-filters="sRGB"
       id="filter4142-0">
      <feGaussianBlur
         id="feGaussianBlur4144-5"
         stdDeviation="3.9708581" />
    </filter>
    <linearGradient
       x1="1480.2878"
       y1="5124.2783"
       x2="1475.7883"
       y2="4696.8394"
       id="linearGradient4260"
       xlink:href="#linearGradient3974-7"
       gradientUnits="userSpaceOnUse"
       gradientTransform="translate(-8.9987119,1471.289)" />
    <linearGradient
       id="linearGradient3974-7">
      <stop
         id="stop3976-6"
         style="stop-color:#000000;stop-opacity:1"
         offset="0" />
      <stop
         id="stop3978-6"
         style="stop-color:#000000;stop-opacity:0"
         offset="1" />
    </linearGradient>
    <linearGradient
       x1="1471.3695"
       y1="4807.3687"
       x2="1469.1199"
       y2="4602.6475"
       id="linearGradient4240"
       xlink:href="#linearGradient3962-1"
       gradientUnits="userSpaceOnUse" />
    <linearGradient
       id="linearGradient3962-1">
      <stop
         id="stop3964-4"
         style="stop-color:#ffffff;stop-opacity:1"
         offset="0" />
      <stop
         id="stop3966-0"
         style="stop-color:#ffffff;stop-opacity:0"
         offset="1" />
    </linearGradient>
    <filter
       color-interpolation-filters="sRGB"
       id="filter3958-0">
      <feGaussianBlur
         id="feGaussianBlur3960-1"
         stdDeviation="3.7445471" />
    </filter>
    <linearGradient
       x1="1498.9908"
       y1="4909.7725"
       x2="1492.0819"
       y2="5150.9199"
       id="linearGradient4249"
       xlink:href="#linearGradient4054-2"
       gradientUnits="userSpaceOnUse"
       gradientTransform="matrix(1.042033,0,0,2.2648522,-73.936381,-5343.8375)" />
    <linearGradient
       id="linearGradient4054-2">
      <stop
         id="stop4056-7"
         style="stop-color:#ffffff;stop-opacity:1"
         offset="0" />
      <stop
         id="stop4058-8"
         style="stop-color:#ffffff;stop-opacity:0"
         offset="1" />
    </linearGradient>
    <linearGradient
       x1="1498.9908"
       y1="4909.7725"
       x2="1492.0819"
       y2="5150.9199"
       id="linearGradient4913"
       xlink:href="#linearGradient4054-2"
       gradientUnits="userSpaceOnUse"
       gradientTransform="matrix(1.042033,0,0,2.2648522,-73.936381,-5343.8375)" />
    <filter
       color-interpolation-filters="sRGB"
       id="filter4142-5">
      <feGaussianBlur
         id="feGaussianBlur4144-3"
         stdDeviation="3.9708581" />
    </filter>
    <linearGradient
       x1="1480.2878"
       y1="5124.2783"
       x2="1475.7883"
       y2="4696.8394"
       id="linearGradient4338"
       xlink:href="#linearGradient3974-5"
       gradientUnits="userSpaceOnUse"
       gradientTransform="translate(-8.9987119,1954.8807)" />
    <linearGradient
       id="linearGradient3974-5">
      <stop
         id="stop3976-5"
         style="stop-color:#000000;stop-opacity:1"
         offset="0" />
      <stop
         id="stop3978-0"
         style="stop-color:#000000;stop-opacity:0"
         offset="1" />
    </linearGradient>
    <linearGradient
       x1="1471.3695"
       y1="4807.3687"
       x2="1469.1199"
       y2="4602.6475"
       id="linearGradient4340"
       xlink:href="#linearGradient3962-12"
       gradientUnits="userSpaceOnUse" />
    <linearGradient
       id="linearGradient3962-12">
      <stop
         id="stop3964-7"
         style="stop-color:#ffffff;stop-opacity:1"
         offset="0" />
      <stop
         id="stop3966-8"
         style="stop-color:#ffffff;stop-opacity:0"
         offset="1" />
    </linearGradient>
    <filter
       color-interpolation-filters="sRGB"
       id="filter3958-1">
      <feGaussianBlur
         id="feGaussianBlur3960-5"
         stdDeviation="3.7445471" />
    </filter>
    <linearGradient
       x1="426.91302"
       y1="6054.7119"
       x2="424.29578"
       y2="5913.3818"
       id="linearGradient4360"
       xlink:href="#linearGradient4354"
       gradientUnits="userSpaceOnUse" />
    <linearGradient
       id="linearGradient4354">
      <stop
         id="stop4356"
         style="stop-color:#999999;stop-opacity:1"
         offset="0" />
      <stop
         id="stop4358"
         style="stop-color:#999999;stop-opacity:0"
         offset="1" />
    </linearGradient>
    <linearGradient
       x1="426.91302"
       y1="6054.7119"
       x2="424.29578"
       y2="5913.3818"
       id="linearGradient5017"
       xlink:href="#linearGradient4354"
       gradientUnits="userSpaceOnUse" />
    <linearGradient
       x1="426.91302"
       y1="6054.7119"
       x2="424.29578"
       y2="5913.3818"
       id="linearGradient5025"
       xlink:href="#linearGradient4354"
       gradientUnits="userSpaceOnUse" />
    <linearGradient
       x1="426.91302"
       y1="6054.7119"
       x2="424.29578"
       y2="5913.3818"
       id="linearGradient5033"
       xlink:href="#linearGradient4354"
       gradientUnits="userSpaceOnUse" />
    <linearGradient
       x1="1498.9908"
       y1="4909.7725"
       x2="1492.0819"
       y2="5150.9199"
       id="linearGradient4342"
       xlink:href="#linearGradient4054-5"
       gradientUnits="userSpaceOnUse"
       gradientTransform="matrix(1.042033,0,0,2.2648522,-74.674258,-4860.9061)" />
    <linearGradient
       id="linearGradient4054-5">
      <stop
         id="stop4056-6"
         style="stop-color:#ffffff;stop-opacity:1"
         offset="0" />
      <stop
         id="stop4058-2"
         style="stop-color:#ffffff;stop-opacity:0"
         offset="1" />
    </linearGradient>
    <linearGradient
       x1="426.91302"
       y1="6054.7119"
       x2="424.29578"
       y2="5913.3818"
       id="linearGradient5061"
       xlink:href="#linearGradient4354"
       gradientUnits="userSpaceOnUse" />
    <linearGradient
       x1="426.91302"
       y1="6054.7119"
       x2="424.29578"
       y2="5913.3818"
       id="linearGradient5063"
       xlink:href="#linearGradient4354"
       gradientUnits="userSpaceOnUse" />
    <linearGradient
       x1="426.91302"
       y1="6054.7119"
       x2="424.29578"
       y2="5913.3818"
       id="linearGradient5065"
       xlink:href="#linearGradient4354"
       gradientUnits="userSpaceOnUse" />
    <linearGradient
       x1="1498.9908"
       y1="4909.7725"
       x2="1492.0819"
       y2="5150.9199"
       id="linearGradient5067"
       xlink:href="#linearGradient4054-5"
       gradientUnits="userSpaceOnUse"
       gradientTransform="matrix(1.042033,0,0,2.2648522,-74.674258,-4860.9061)" />
    <filter
       color-interpolation-filters="sRGB"
       id="filter4142-01">
      <feGaussianBlur
         id="feGaussianBlur4144-34"
         stdDeviation="3.9708581" />
    </filter>
    <linearGradient
       x1="1480.2878"
       y1="5124.2783"
       x2="1475.7883"
       y2="4696.8394"
       id="linearGradient4392"
       xlink:href="#linearGradient3974-9"
       gradientUnits="userSpaceOnUse"
       gradientTransform="translate(548.92128,1954.8807)" />
    <linearGradient
       id="linearGradient3974-9">
      <stop
         id="stop3976-1"
         style="stop-color:#000000;stop-opacity:1"
         offset="0" />
      <stop
         id="stop3978-1"
         style="stop-color:#000000;stop-opacity:0"
         offset="1" />
    </linearGradient>
    <linearGradient
       x1="1471.3695"
       y1="4807.3687"
       x2="1469.1199"
       y2="4602.6475"
       id="linearGradient4394"
       xlink:href="#linearGradient3962-8"
       gradientUnits="userSpaceOnUse" />
    <linearGradient
       id="linearGradient3962-8">
      <stop
         id="stop3964-5"
         style="stop-color:#ffffff;stop-opacity:1"
         offset="0" />
      <stop
         id="stop3966-03"
         style="stop-color:#ffffff;stop-opacity:0"
         offset="1" />
    </linearGradient>
    <filter
       color-interpolation-filters="sRGB"
       id="filter3958-2">
      <feGaussianBlur
         id="feGaussianBlur3960-3"
         stdDeviation="3.7445471" />
    </filter>
    <filter
       color-interpolation-filters="sRGB"
       id="filter4502">
      <feGaussianBlur
         id="feGaussianBlur4504"
         stdDeviation="1.9468436" />
    </filter>
    <linearGradient
       x1="-662.90802"
       y1="5945.397"
       x2="-658.57111"
       y2="5813.9238"
       id="linearGradient4514"
       xlink:href="#linearGradient4438"
       gradientUnits="userSpaceOnUse"
       gradientTransform="matrix(1,0,0.16608201,0.98611194,-446.20877,-81.128869)" />
    <linearGradient
       id="linearGradient4438">
      <stop
         id="stop4440"
         style="stop-color:#808080;stop-opacity:1"
         offset="0" />
      <stop
         id="stop4442"
         style="stop-color:#808080;stop-opacity:0"
         offset="1" />
    </linearGradient>
    <filter
       color-interpolation-filters="sRGB"
       id="filter4456">
      <feGaussianBlur
         id="feGaussianBlur4458"
         stdDeviation="2.3861433" />
    </filter>
    <linearGradient
       x1="2391.0603"
       y1="6193.0146"
       x2="2387.7197"
       y2="6048.0713"
       id="linearGradient4516"
       xlink:href="#linearGradient4428"
       gradientUnits="userSpaceOnUse"
       gradientTransform="matrix(1,0,0,1.0111434,-499.11224,-161.92802)" />
    <linearGradient
       id="linearGradient4428">
      <stop
         id="stop4430"
         style="stop-color:#999999;stop-opacity:1"
         offset="0" />
      <stop
         id="stop4432"
         style="stop-color:#999999;stop-opacity:0"
         offset="1" />
    </linearGradient>
    <linearGradient
       x1="1498.9908"
       y1="4909.7725"
       x2="1492.0819"
       y2="5150.9199"
       id="linearGradient4404"
       xlink:href="#linearGradient4054-0"
       gradientUnits="userSpaceOnUse"
       gradientTransform="matrix(1.042033,0,0,2.2648522,487.58327,-4854.0427)" />
    <linearGradient
       id="linearGradient4054-0">
      <stop
         id="stop4056-3"
         style="stop-color:#ffffff;stop-opacity:1"
         offset="0" />
      <stop
         id="stop4058-0"
         style="stop-color:#ffffff;stop-opacity:0"
         offset="1" />
    </linearGradient>
    <linearGradient
       x1="1498.9908"
       y1="4909.7725"
       x2="1492.0819"
       y2="5150.9199"
       id="linearGradient5243"
       xlink:href="#linearGradient4054-0"
       gradientUnits="userSpaceOnUse"
       gradientTransform="matrix(1.042033,0,0,2.2648522,487.58327,-4854.0427)" />
    <filter
       color-interpolation-filters="sRGB"
       id="filter4142-4">
      <feGaussianBlur
         id="feGaussianBlur4144-8"
         stdDeviation="3.9708581" />
    </filter>
    <linearGradient
       x1="949.36383"
       y1="6118.6357"
       x2="949.36383"
       y2="5949.9097"
       id="linearGradient4218"
       xlink:href="#linearGradient4206"
       gradientUnits="userSpaceOnUse" />
    <linearGradient
       id="linearGradient4206">
      <stop
         id="stop4208"
         style="stop-color:#000080;stop-opacity:1"
         offset="0" />
      <stop
         id="stop4210"
         style="stop-color:#000080;stop-opacity:0"
         offset="1" />
    </linearGradient>
    <linearGradient
       x1="1480.2878"
       y1="5124.2783"
       x2="1475.7883"
       y2="4696.8394"
       id="linearGradient4200"
       xlink:href="#linearGradient3974-93"
       gradientUnits="userSpaceOnUse"
       gradientTransform="translate(-13.385015,1000.2455)" />
    <linearGradient
       id="linearGradient3974-93">
      <stop
         id="stop3976-0"
         style="stop-color:#000000;stop-opacity:1"
         offset="0" />
      <stop
         id="stop3978-9"
         style="stop-color:#000000;stop-opacity:0"
         offset="1" />
    </linearGradient>
    <linearGradient
       x1="1471.3695"
       y1="4807.3687"
       x2="1469.1199"
       y2="4602.6475"
       id="linearGradient4178"
       xlink:href="#linearGradient3962-5"
       gradientUnits="userSpaceOnUse" />
    <linearGradient
       id="linearGradient3962-5">
      <stop
         id="stop3964-6"
         style="stop-color:#ffffff;stop-opacity:1"
         offset="0" />
      <stop
         id="stop3966-6"
         style="stop-color:#ffffff;stop-opacity:0"
         offset="1" />
    </linearGradient>
    <filter
       color-interpolation-filters="sRGB"
       id="filter3958-9">
      <feGaussianBlur
         id="feGaussianBlur3960-35"
         stdDeviation="3.7445471" />
    </filter>
    <filter
       color-interpolation-filters="sRGB"
       id="filter3997-1">
      <feGaussianBlur
         id="feGaussianBlur3999-5"
         stdDeviation="3.0873328" />
    </filter>
    <linearGradient
       x1="1509.5334"
       y1="4492.1187"
       x2="1509.5334"
       y2="4800.3247"
       id="linearGradient4195"
       xlink:href="#linearGradient4001-6"
       gradientUnits="userSpaceOnUse"
       gradientTransform="translate(-11.135335,1000.2455)" />
    <linearGradient
       id="linearGradient4001-6">
      <stop
         id="stop4003-7"
         style="stop-color:#ffffff;stop-opacity:1"
         offset="0" />
      <stop
         id="stop4005-1"
         style="stop-color:#ffffff;stop-opacity:0"
         offset="1" />
    </linearGradient>
    <linearGradient
       x1="1509.5334"
       y1="4492.1187"
       x2="1509.5334"
       y2="4800.3247"
       id="linearGradient4192"
       xlink:href="#linearGradient4001-6"
       gradientUnits="userSpaceOnUse"
       gradientTransform="translate(-11.135335,1000.2455)" />
    <linearGradient
       x1="1498.9908"
       y1="4909.7725"
       x2="1492.0819"
       y2="5150.9199"
       id="linearGradient4189"
       xlink:href="#linearGradient4054-4"
       gradientUnits="userSpaceOnUse"
       gradientTransform="matrix(1.0330242,0,0,2.2648522,-61.629742,-5813.7197)" />
    <linearGradient
       id="linearGradient4054-4">
      <stop
         id="stop4056-8"
         style="stop-color:#ffffff;stop-opacity:1"
         offset="0" />
      <stop
         id="stop4058-3"
         style="stop-color:#ffffff;stop-opacity:0"
         offset="1" />
    </linearGradient>
    <linearGradient
       x1="1498.9908"
       y1="4909.7725"
       x2="1492.0819"
       y2="5150.9199"
       id="linearGradient5432"
       xlink:href="#linearGradient4054-4"
       gradientUnits="userSpaceOnUse"
       gradientTransform="matrix(1.0330242,0,0,2.2648522,-61.629742,-5813.7197)" />
  </defs>
  <metadata
     id="metadata4">
    <rdf:RDF>
      <cc:Work
         rdf:about="">
        <dc:format>image/svg+xml</dc:format>
        <dc:type
           rdf:resource="http://purl.org/dc/dcmitype/StillImage" />
        <dc:title></dc:title>
      </cc:Work>
    </rdf:RDF>
  </metadata>
  <g
     transform="translate(-31.952483,-35.692453)"
     id="layer1">
    <g
       transform="matrix(1.547498,0,0,1.547498,-1921.1246,-8344.4261)"
       id="g5366">
      <path
         d="m 1643.7709,5439.974 c -107.6339,0.2706 -215.2794,-0.275 -322.9062,0.3126 -24.0481,2.4514 -42.3188,26.7887 -39.1216,50.6249 0.3482,99.1509 -0.7236,198.3459 0.5904,297.4688 3.5874,23.0832 27.3087,39.961 50.3437,36.9055 106.2953,-0.2637 212.6456,0.5529 318.9063,-0.4368 23.5559,-3.0737 40.9922,-27.0775 37.9045,-50.4687 -0.2579,-98.7682 0.5433,-197.5584 -0.4045,-296.3125 -2.856,-21.5579 -23.4965,-39.0651 -45.3126,-38.0938 z"
         id="path4160"
         style="fill:#000000;fill-opacity:1;stroke:none;filter:url(#filter4142-4)" />
      <g
         transform="translate(521.92516,-346.45032)"
         id="g4214">
        <path
           d="m 802.65677,5784.8225 318.38683,0 c 22.1063,0 39.903,17.7968 39.903,39.9031 l 0,295.89 c 0,22.1063 -17.7967,39.903 -39.903,39.903 l -318.38683,0 c -22.1063,0 -39.9031,-17.7967 -39.9031,-39.903 l 0,-295.89 c 0,-22.1063 17.7968,-39.9031 39.9031,-39.9031 z"
           id="path4162"
           style="fill:#0000ff;fill-opacity:1;stroke:none" />
        <path
           d="m 802.65677,5784.8225 318.38683,0 c 22.1063,0 39.903,17.7968 39.903,39.9031 l 0,295.89 c 0,22.1063 -17.7967,39.903 -39.903,39.903 l -318.38683,0 c -22.1063,0 -39.9031,-17.7967 -39.9031,-39.903 l 0,-295.89 c 0,-22.1063 17.7968,-39.9031 39.9031,-39.9031 z"
           id="path4204"
           style="fill:url(#linearGradient4218);fill-opacity:1;stroke:none" />
      </g>
      <path
         d="m 1322.3323,5438.3721 318.3867,0 c 22.1063,0 39.9031,17.7968 39.9031,39.9031 l 0,295.89 c 0,22.1063 -17.7968,39.903 -39.9031,39.903 l -318.3867,0 c -22.1063,0 -39.9031,-17.7967 -39.9031,-39.903 l 0,-295.89 c 0,-22.1063 17.7968,-39.9031 39.9031,-39.9031 z"
         id="path4164"
         style="fill:url(#linearGradient4200);fill-opacity:1;stroke:none" />
      <path
         d="m 1655.4688,4444.75 c -4.793,0.5602 -1.703,5.5631 1.7187,5.6875 18.5154,7.8774 28.7513,29.1281 25.7113,48.75 -0.5387,89.3263 1.237,178.714 -1.0238,268 -4.5621,21.9445 -28.4416,36.7657 -50.2187,33.1528 -96.3388,-0.5175 -192.7213,1.1117 -289.0313,-0.9341 -17.2236,-3.4141 -30.0378,-18.9154 -33.4743,-35.6152 -2.4992,-9.4552 -4.5365,1.9534 -4.1674,6.0214 -0.9617,11.3873 2.9521,23.4409 12.5792,30.1251 9.322,7.6329 21.9917,8.3985 33.5,7.1186 104.3273,-0.3933 208.7048,0.892 313,-0.7436 18.4744,-4.0375 29.0924,-24.9743 25.4653,-42.75 -0.5424,-97.8864 1.1097,-195.8502 -0.9028,-293.6875 -3.5787,-14.5736 -18.0783,-25.6811 -33.1562,-25.125 z m -322.5626,0.4375 c -19.2944,2.3707 -31.8405,23.6484 -28.0916,42.125 0.5441,10.149 -1.013,20.7461 0.8727,30.6089 1.7428,6.6781 4.5781,-3.6467 3.8752,-6.6402 0.4203,-15.7135 -2.9176,-33.7229 7.9063,-46.8124 6.2555,-9.2117 16.709,-13.4206 26.1874,-18.4376 -3.582,-0.394 -7.1305,-1.1153 -10.75,-0.8437 z"
         transform="matrix(-1,0,0,-1,2981.0162,10247.99)"
         id="path4166"
         style="opacity:0.87999998;fill:url(#linearGradient4178);fill-opacity:1;stroke:none;filter:url(#filter3958-9)" />
      <path
         d="m 1587.087,5534.1553 c -9.9623,-9.9623 -26.0077,-9.9623 -35.97,0 l -59.4695,59.4695 -59.4694,-59.4695 c -9.9623,-9.9623 -26.0077,-9.9623 -35.97,0 -9.9622,9.9622 -9.9622,26.0077 0,35.97 l 59.4695,59.4694 -59.4694,59.4694 c -9.9623,9.9623 -9.9623,26.0077 0,35.97 9.9622,9.9622 26.0077,9.9622 35.97,0 l 59.4694,-59.4694 59.4693,59.4694 c 9.9623,9.9622 26.0078,9.9622 35.97,0 9.9623,-9.9623 9.9623,-26.0077 0,-35.97 l -59.4694,-59.4694 59.4695,-59.4694 c 9.9622,-9.9623 9.9622,-26.0078 0,-35.97 z"
         id="path4168"
         style="opacity:0.87999998;fill:#550000;fill-opacity:1;stroke:none;filter:url(#filter3997-1)" />
      <path
         d="m 1584.8373,5534.1553 c -9.9623,-9.9623 -26.0077,-9.9623 -35.97,0 l -59.4695,59.4695 -59.4694,-59.4695 c -9.9623,-9.9623 -26.0077,-9.9623 -35.97,0 -9.9622,9.9622 -9.9622,26.0077 0,35.97 l 59.4695,59.4694 -59.4694,59.4694 c -9.9623,9.9623 -9.9623,26.0077 0,35.97 9.9622,9.9622 26.0077,9.9622 35.97,0 l 59.4694,-59.4694 59.4693,59.4694 c 9.9623,9.9622 26.0078,9.9622 35.97,0 9.9623,-9.9623 9.9623,-26.0077 0,-35.97 l -59.4694,-59.4694 59.4695,-59.4694 c 9.9622,-9.9623 9.9622,-26.0078 0,-35.97 z"
         id="path4170"
         style="opacity:0.87999998;fill:url(#linearGradient4195);fill-opacity:1;stroke:none" />
      <path
         d="m 1410.8647,5533.433 c -12.8875,0.3243 -22.5738,16.2258 -15.2812,27.375 7.0541,11.0916 18.6091,18.7009 27.3035,28.572 13.377,13.3624 26.5946,26.884 40.0402,40.178 -22.2673,23.4293 -46.7928,45.0048 -67.875,69.2813 -6.5945,12.4248 5.1702,29.5364 19.2187,26.8437 12.6894,-2.6098 19.2058,-15.3389 28.5515,-23.114 15.5102,-15.5076 31.0107,-31.0248 46.5423,-46.511 23.5243,22.354 45.1105,46.9626 69.5938,68.0937 12.6034,6.2831 29.7279,-5.976 26.4062,-20.1562 -3.2457,-12.5934 -15.8211,-19.0249 -23.6961,-28.5398 -15.2721,-15.2743 -30.5531,-30.5397 -45.8039,-45.8352 22.2889,-23.3998 46.8018,-45.0242 67.9062,-69.3438 6.6995,-12.7728 -5.7763,-30.0489 -20.1562,-26.5937 -12.2169,3.1254 -18.5037,15.4301 -27.7347,23.0159 -15.4809,15.4772 -30.9501,30.9662 -46.4528,46.4216 -23.5101,-22.2976 -45.0632,-47.0845 -69.6563,-68.0312 -2.7314,-1.3811 -5.8614,-1.921 -8.9062,-1.6563 z"
         id="path4172"
         style="opacity:0.87999998;fill:url(#linearGradient4192);fill-opacity:1;stroke:none" />
      <path
         d="m 1641.9886,5455.7575 c -90.2045,3.2725 -180.7438,-0.68 -271.0711,1.2972 -18.1186,0.6095 -36.806,0.4567 -54.5574,2.2341 -10.1651,13.7485 -8.6445,31.7035 -9.5996,47.8122 0.8718,53.0085 0.3556,106.0202 0.4315,159.0315 23.0246,33.7358 49.0722,68.7662 88.033,85.8437 18.4429,7.3697 40.1425,3.365 55.4885,-8.512 36.1402,-22.7345 64.9351,-53.9623 98.7463,-79.6726 29.8494,-26.3785 61.2101,-55.2005 102.1022,-63.3258 3.5596,-0.5141 8.1473,0.021 6.182,-5.0206 -0.582,-43.0896 4.4498,-86.8783 -4.618,-129.3752 -1.8824,-4.5276 -5.1261,-10.8509 -11.1374,-10.3125 z"
         id="path4174"
         style="fill:url(#linearGradient5432);fill-opacity:1;stroke:none" />
    </g>
  </g>
</svg>
